<svg width="24" height="24" viewBox="0 0 24 24" fill="none" xmlns="http://www.w3.org/2000/svg">
<circle cx="12" cy="12" r="12" fill="#EEEEEE"/>
<g clip-path="url(#clip0_130549_8654)">
<path d="M12 14C13.1046 14 14 13.1046 14 12C14 10.8954 13.1046 10 12 10C10.8954 10 10 10.8954 10 12C10 13.1046 10.8954 14 12 14Z" fill="#323232"/>
<path d="M17.3335 6.66668H15.2202L14.3935 5.76668C14.1468 5.49334 13.7868 5.33334 13.4135 5.33334H10.5868C10.2135 5.33334 9.8535 5.49334 9.60016 5.76668L8.78016 6.66668H6.66683C5.9335 6.66668 5.3335 7.26668 5.3335 8.00001V16C5.3335 16.7333 5.9335 17.3333 6.66683 17.3333H17.3335C18.0668 17.3333 18.6668 16.7333 18.6668 16V8.00001C18.6668 7.26668 18.0668 6.66668 17.3335 6.66668ZM12.0002 15.3333C10.1602 15.3333 8.66683 13.84 8.66683 12C8.66683 10.16 10.1602 8.66668 12.0002 8.66668C13.8402 8.66668 15.3335 10.16 15.3335 12C15.3335 13.84 13.8402 15.3333 12.0002 15.3333Z" fill="#323232"/>
</g>
<defs>
<clipPath id="clip0_130549_8654">
<rect width="16" height="16" fill="white" transform="translate(4 4)"/>
</clipPath>
</defs>
</svg>
