<svg width="20" height="20" viewBox="0 0 20 20" fill="none" xmlns="http://www.w3.org/2000/svg">
<path fill-rule="evenodd" clip-rule="evenodd" d="M16.4005 2.3999H6.80049C5.92049 2.3999 5.20049 3.1199 5.20049 3.9999V13.5999C5.20049 14.4799 5.92049 15.1999 6.80049 15.1999H16.4005C17.2805 15.1999 18.0005 14.4799 18.0005 13.5999V3.9999C18.0005 3.1199 17.2805 2.3999 16.4005 2.3999ZM9.60049 8.3999C9.60049 9.0639 9.06449 9.5999 8.40049 9.5999H7.60049V11.1999H6.40049V6.3999H8.40049C9.06449 6.3999 9.60049 6.9359 9.60049 7.5999V8.3999ZM12.4005 11.1999C13.0645 11.1999 13.6005 10.6639 13.6005 9.9999V7.5999C13.6005 6.9359 13.0645 6.3999 12.4005 6.3999H10.4005V11.1999H12.4005ZM16.8005 7.5999H15.6005V8.3999H16.8005V9.5999H15.6005V11.1999H14.4005V6.3999H16.8005V7.5999ZM8.40049 8.3999H7.60049V7.5999H8.40049V8.3999ZM3.60049 5.5999H2.00049V16.7999C2.00049 17.6799 2.72049 18.3999 3.60049 18.3999H14.8005V16.7999H3.60049V5.5999ZM12.4005 9.9999H11.6005V7.5999H12.4005V9.9999Z" fill="#EB5757"/>
</svg>
