<svg id="svg" version="1.1" xmlns="http://www.w3.org/2000/svg" xmlns:xlink="http://www.w3.org/1999/xlink" width="400" height="400" viewBox="0, 0, 400,400"><g id="svgg"><path id="path0" d="M68.800 91.200 C 68.800 91.420,68.453 91.600,68.029 91.600 C 67.604 91.600,66.987 91.870,66.657 92.200 C 66.327 92.530,65.851 92.800,65.600 92.800 C 64.343 92.800,64.000 93.953,64.000 98.171 C 64.000 100.724,64.159 102.400,64.400 102.400 C 64.657 102.400,64.800 106.400,64.800 113.600 C 64.800 120.800,64.657 124.800,64.400 124.800 C 64.164 124.800,64.000 126.210,64.000 128.229 C 64.000 131.757,64.404 132.800,65.771 132.800 C 66.117 132.800,66.400 132.980,66.400 133.200 C 66.400 133.420,66.760 133.600,67.200 133.600 C 67.640 133.600,68.000 133.780,68.000 134.000 C 68.000 134.266,106.533 134.400,182.800 134.400 C 259.067 134.400,297.600 134.534,297.600 134.800 C 297.600 135.020,298.280 135.200,299.112 135.200 C 300.165 135.200,300.798 135.443,301.200 136.000 C 301.517 136.440,302.015 136.800,302.306 136.800 C 303.037 136.800,304.800 138.626,304.800 139.382 C 304.800 139.722,304.980 140.000,305.200 140.000 C 305.420 140.000,305.600 140.450,305.600 141.000 C 305.600 141.550,305.780 142.000,306.000 142.000 C 306.252 142.000,306.400 144.667,306.400 149.200 C 306.400 153.733,306.548 156.400,306.800 156.400 C 307.035 156.400,307.200 157.800,307.200 159.800 C 307.200 161.800,307.035 163.200,306.800 163.200 C 306.536 163.200,306.400 179.467,306.400 211.200 C 306.400 242.933,306.536 259.200,306.800 259.200 C 307.044 259.200,307.200 261.056,307.200 263.967 C 307.200 267.418,307.338 268.783,307.700 268.913 C 308.039 269.035,307.910 269.350,307.300 269.893 C 306.679 270.446,306.400 271.144,306.400 272.147 C 306.400 272.946,306.220 273.600,306.000 273.600 C 305.780 273.600,305.600 274.050,305.600 274.600 C 305.600 275.150,305.420 275.600,305.200 275.600 C 304.980 275.600,304.800 276.062,304.800 276.626 C 304.800 277.331,304.174 278.262,302.800 279.600 C 301.700 280.671,300.800 281.744,300.800 281.985 C 300.800 282.650,297.305 286.000,296.611 286.000 C 296.275 286.000,296.000 286.180,296.000 286.400 C 296.000 286.620,295.640 286.800,295.200 286.800 C 294.760 286.800,294.400 286.980,294.400 287.200 C 294.400 287.420,293.590 287.600,292.600 287.600 C 291.610 287.600,290.800 287.420,290.800 287.200 C 290.800 286.934,254.800 286.800,183.600 286.800 C 112.400 286.800,76.400 286.666,76.400 286.400 C 76.400 286.169,75.133 286.000,73.400 286.000 C 71.667 286.000,70.400 285.831,70.400 285.600 C 70.400 285.380,70.040 285.200,69.600 285.200 C 69.100 285.200,68.800 285.467,68.800 285.912 C 68.800 286.303,68.440 286.883,68.000 287.200 C 67.560 287.517,67.200 288.097,67.200 288.488 C 67.200 288.880,67.020 289.200,66.800 289.200 C 66.580 289.200,66.400 289.560,66.400 290.000 C 66.400 290.440,66.220 290.800,66.000 290.800 C 65.780 290.800,65.600 291.070,65.600 291.400 C 65.600 291.730,65.420 292.000,65.200 292.000 C 64.980 292.000,64.800 292.360,64.800 292.800 C 64.800 293.240,64.620 293.600,64.400 293.600 C 64.180 293.600,64.000 294.320,64.000 295.200 C 64.000 296.080,64.180 296.800,64.400 296.800 C 64.654 296.800,64.800 299.800,64.800 305.000 C 64.800 310.200,64.654 313.200,64.400 313.200 C 64.169 313.200,64.000 314.471,64.000 316.213 C 64.000 319.294,65.542 322.000,67.298 322.000 C 67.587 322.000,68.083 322.360,68.400 322.800 C 69.030 323.674,74.400 324.032,74.400 323.200 C 74.400 322.934,119.067 322.800,207.600 322.800 C 296.133 322.800,340.800 322.934,340.800 323.200 C 340.800 324.621,344.085 323.533,346.209 321.409 L 348.400 319.217 348.400 313.209 C 348.400 309.470,348.249 307.200,348.000 307.200 C 347.738 307.200,347.600 298.467,347.600 281.800 C 347.600 265.133,347.738 256.400,348.000 256.400 C 348.637 256.400,348.539 232.131,347.900 231.833 C 347.500 231.647,347.500 231.553,347.900 231.367 C 348.544 231.066,348.643 157.200,348.000 157.200 C 347.749 157.200,347.600 154.667,347.600 150.400 C 347.600 146.133,347.749 143.600,348.000 143.600 C 348.256 143.600,348.400 140.000,348.400 133.600 C 348.400 127.200,348.256 123.600,348.000 123.600 C 347.745 123.600,347.600 120.333,347.600 114.600 C 347.600 108.867,347.745 105.600,348.000 105.600 C 348.248 105.600,348.400 103.467,348.400 100.000 C 348.400 96.533,348.552 94.400,348.800 94.400 C 349.020 94.400,349.200 94.220,349.200 94.000 C 349.200 93.780,348.906 93.600,348.547 93.600 C 348.188 93.600,347.603 93.269,347.247 92.864 C 346.891 92.459,346.105 92.006,345.500 91.856 C 344.895 91.707,344.400 91.408,344.400 91.192 C 344.400 90.971,343.094 90.800,341.400 90.800 C 339.667 90.800,338.400 90.969,338.400 91.200 C 338.400 91.466,294.133 91.600,206.400 91.600 C 118.667 91.600,74.400 91.466,74.400 91.200 C 74.400 90.971,73.200 90.800,71.600 90.800 C 70.000 90.800,68.800 90.971,68.800 91.200 M117.600 166.400 C 117.283 166.840,116.785 167.200,116.494 167.200 C 114.763 167.200,114.000 169.030,114.000 173.182 C 114.000 175.594,114.160 177.200,114.400 177.200 C 114.663 177.200,114.800 187.400,114.800 207.000 C 114.800 226.600,114.663 236.800,114.400 236.800 C 114.163 236.800,114.000 238.269,114.000 240.407 L 114.000 244.015 116.593 246.607 L 119.185 249.200 125.159 249.200 C 129.547 249.200,131.195 249.067,131.367 248.700 C 131.553 248.300,131.647 248.300,131.833 248.700 C 132.128 249.332,145.200 249.430,145.200 248.800 C 145.200 248.580,145.560 248.400,146.000 248.400 C 146.440 248.400,146.800 248.220,146.800 248.000 C 146.800 247.780,147.160 247.600,147.600 247.600 C 148.040 247.600,148.400 247.420,148.400 247.200 C 148.400 246.980,148.940 246.800,149.600 246.800 C 150.260 246.800,150.800 246.620,150.800 246.400 C 150.800 246.180,151.160 246.000,151.600 246.000 C 152.040 246.000,152.400 245.820,152.400 245.600 C 152.400 245.380,152.760 245.200,153.200 245.200 C 153.640 245.200,154.000 245.020,154.000 244.800 C 154.000 244.580,154.360 244.400,154.800 244.400 C 155.422 244.400,155.600 244.133,155.600 243.200 C 155.600 242.540,155.420 242.000,155.200 242.000 C 154.980 242.000,154.800 241.370,154.800 240.600 C 154.800 239.830,154.620 239.200,154.400 239.200 C 154.180 239.200,154.000 238.300,154.000 237.200 C 154.000 236.100,153.820 235.200,153.600 235.200 C 153.337 235.200,153.200 225.667,153.200 207.400 C 153.200 189.133,153.337 179.600,153.600 179.600 C 153.822 179.600,154.000 178.533,154.000 177.200 C 154.000 175.867,154.178 174.800,154.400 174.800 C 154.620 174.800,154.800 174.170,154.800 173.400 C 154.800 172.630,154.980 172.000,155.200 172.000 C 155.420 172.000,155.600 171.280,155.600 170.400 C 155.600 169.067,155.467 168.800,154.800 168.800 C 154.360 168.800,154.000 168.620,154.000 168.400 C 154.000 168.180,153.280 168.000,152.400 168.000 C 151.520 168.000,150.800 167.820,150.800 167.600 C 150.800 167.380,150.260 167.200,149.600 167.200 C 148.940 167.200,148.400 167.020,148.400 166.800 C 148.400 166.580,147.860 166.400,147.200 166.400 C 146.540 166.400,146.000 166.220,146.000 166.000 C 146.000 165.105,118.252 165.495,117.600 166.400 " stroke="none" fill="#0c63c7" fill-rule="evenodd"></path><path id="path1" d="M65.600 84.000 C 65.600 84.220,65.060 84.400,64.400 84.400 C 63.740 84.400,63.200 84.580,63.200 84.800 C 63.200 85.020,62.660 85.200,62.000 85.200 C 61.340 85.200,60.800 85.380,60.800 85.600 C 60.800 85.820,60.440 86.000,60.000 86.000 C 59.560 86.000,59.200 86.180,59.200 86.400 C 59.200 86.620,58.930 86.800,58.600 86.800 C 58.270 86.800,58.000 86.980,58.000 87.200 C 58.000 87.420,57.722 87.600,57.382 87.600 C 56.657 87.600,54.800 89.351,54.800 90.035 C 54.800 90.551,53.281 92.000,52.739 92.000 C 52.552 92.000,52.400 92.360,52.400 92.800 C 52.400 93.240,52.220 93.600,52.000 93.600 C 51.780 93.600,51.600 93.960,51.600 94.400 C 51.600 94.840,51.780 95.200,52.000 95.200 C 52.260 95.200,52.400 101.067,52.400 112.000 C 52.400 122.933,52.260 128.800,52.000 128.800 C 51.780 128.800,51.600 129.520,51.600 130.400 C 51.600 131.280,51.780 132.000,52.000 132.000 C 52.220 132.000,52.400 132.275,52.400 132.611 C 52.400 133.404,55.796 136.800,56.589 136.800 C 56.925 136.800,57.200 136.980,57.200 137.200 C 57.200 137.420,57.470 137.600,57.800 137.600 C 58.130 137.600,58.400 137.780,58.400 138.000 C 58.400 138.220,58.760 138.400,59.200 138.400 C 59.640 138.400,60.000 138.580,60.000 138.800 C 60.000 139.020,60.540 139.200,61.200 139.200 C 61.860 139.200,62.400 139.380,62.400 139.600 C 62.400 139.820,63.120 140.000,64.000 140.000 C 64.880 140.000,65.600 140.180,65.600 140.400 C 65.600 140.620,66.500 140.800,67.600 140.800 C 68.700 140.800,69.600 140.980,69.600 141.200 C 69.600 141.422,70.667 141.600,72.000 141.600 C 73.333 141.600,74.400 141.422,74.400 141.200 C 74.400 140.934,111.067 140.800,183.600 140.800 C 256.133 140.800,292.800 140.666,292.800 140.400 C 292.800 139.693,294.204 139.974,294.800 140.800 C 295.117 141.240,295.678 141.600,296.046 141.600 C 296.414 141.600,297.274 142.122,297.958 142.760 L 299.200 143.921 299.200 207.072 C 299.200 269.765,299.194 270.228,298.400 270.800 C 297.960 271.117,297.600 271.625,297.600 271.928 C 297.600 272.231,297.041 273.001,296.358 273.640 L 295.115 274.800 180.758 274.800 C 104.786 274.800,66.400 274.934,66.400 275.200 C 66.400 275.420,65.860 275.600,65.200 275.600 C 64.540 275.600,64.000 275.780,64.000 276.000 C 64.000 276.220,63.460 276.400,62.800 276.400 C 62.140 276.400,61.600 276.580,61.600 276.800 C 61.600 277.020,61.240 277.200,60.800 277.200 C 60.360 277.200,60.000 277.380,60.000 277.600 C 60.000 277.820,59.640 278.000,59.200 278.000 C 58.760 278.000,58.400 278.180,58.400 278.400 C 58.400 278.620,58.214 278.800,57.987 278.800 C 57.342 278.800,54.800 281.501,54.800 282.187 C 54.800 282.524,54.620 282.800,54.400 282.800 C 54.178 282.800,54.000 283.867,54.000 285.200 C 54.000 286.533,53.822 287.600,53.600 287.600 C 53.380 287.600,53.200 288.500,53.200 289.600 C 53.200 290.700,53.020 291.600,52.800 291.600 C 52.541 291.600,52.400 296.800,52.400 306.400 C 52.400 316.000,52.541 321.200,52.800 321.200 C 53.020 321.200,53.200 321.560,53.200 322.000 C 53.200 322.440,53.380 322.800,53.600 322.800 C 53.820 322.800,54.000 323.148,54.000 323.573 C 54.000 323.998,54.360 324.460,54.800 324.600 C 55.240 324.740,55.600 325.120,55.600 325.445 C 55.600 326.070,57.333 328.000,57.894 328.000 C 58.075 328.000,58.483 328.360,58.800 328.800 C 59.117 329.240,59.697 329.600,60.088 329.600 C 60.480 329.600,60.800 329.780,60.800 330.000 C 60.800 330.220,61.160 330.400,61.600 330.400 C 62.040 330.400,62.400 330.580,62.400 330.800 C 62.400 331.020,62.760 331.200,63.200 331.200 C 63.640 331.200,64.000 331.380,64.000 331.600 C 64.000 331.820,64.360 332.000,64.800 332.000 C 65.240 332.000,65.600 332.180,65.600 332.400 C 65.600 332.620,65.960 332.800,66.400 332.800 C 66.840 332.800,67.200 332.980,67.200 333.200 C 67.200 333.466,113.522 333.600,205.367 333.600 C 315.538 333.600,343.570 333.701,343.713 334.100 C 343.835 334.439,344.150 334.310,344.693 333.700 C 345.133 333.205,345.788 332.800,346.147 332.800 C 346.506 332.800,346.800 332.620,346.800 332.400 C 346.800 332.180,347.160 332.000,347.600 332.000 C 348.040 332.000,348.400 331.820,348.400 331.600 C 348.400 331.380,348.720 331.200,349.112 331.200 C 349.503 331.200,350.083 330.840,350.400 330.400 C 350.717 329.960,351.210 329.600,351.496 329.600 C 351.781 329.600,353.185 328.430,354.615 327.000 C 356.045 325.570,357.391 324.400,357.607 324.400 C 357.823 324.400,358.000 324.053,358.000 323.629 C 358.000 323.204,358.270 322.587,358.600 322.257 C 358.930 321.927,359.200 321.374,359.200 321.029 C 359.200 320.683,359.380 320.400,359.600 320.400 C 359.844 320.400,360.000 318.533,360.000 315.600 C 360.000 312.667,359.844 310.800,359.600 310.800 C 359.334 310.800,359.200 275.667,359.200 206.200 C 359.200 136.733,359.334 101.600,359.600 101.600 C 360.614 101.600,360.066 93.039,359.000 92.239 C 358.450 91.826,358.000 91.235,358.000 90.926 C 358.000 90.214,356.209 88.400,355.506 88.400 C 355.215 88.400,354.717 88.040,354.400 87.600 C 354.083 87.160,353.503 86.800,353.112 86.800 C 352.720 86.800,352.400 86.620,352.400 86.400 C 352.400 86.180,352.040 86.000,351.600 86.000 C 351.160 86.000,350.800 85.820,350.800 85.600 C 350.800 85.380,350.440 85.200,350.000 85.200 C 349.560 85.200,349.200 85.020,349.200 84.800 C 349.200 84.580,348.660 84.400,348.000 84.400 C 347.340 84.400,346.800 84.220,346.800 84.000 C 346.800 83.734,299.667 83.600,206.200 83.600 C 112.733 83.600,65.600 83.734,65.600 84.000 M346.000 86.400 C 346.000 86.620,346.360 86.800,346.800 86.800 C 347.240 86.800,347.600 86.980,347.600 87.200 C 347.600 87.420,347.960 87.600,348.400 87.600 C 348.840 87.600,349.200 87.780,349.200 88.000 C 349.200 88.220,349.560 88.400,350.000 88.400 C 350.440 88.400,350.800 88.580,350.800 88.800 C 350.800 89.020,351.076 89.200,351.413 89.200 C 351.751 89.200,352.625 89.785,353.355 90.500 C 354.086 91.215,355.070 92.065,355.542 92.388 C 356.482 93.033,356.908 101.600,356.000 101.600 C 355.734 101.600,355.600 136.867,355.600 206.600 C 355.600 276.333,355.734 311.600,356.000 311.600 C 357.148 311.600,356.445 320.037,355.200 321.200 C 354.540 321.817,354.000 322.569,354.000 322.872 C 354.000 323.175,353.615 323.688,353.145 324.012 C 352.674 324.335,351.873 325.005,351.363 325.500 C 350.853 325.995,350.230 326.400,349.979 326.400 C 349.727 326.400,349.017 326.940,348.400 327.600 C 347.783 328.260,346.991 328.800,346.640 328.800 C 346.288 328.800,346.000 328.980,346.000 329.200 C 346.000 329.420,345.640 329.600,345.200 329.600 C 344.760 329.600,344.400 329.780,344.400 330.000 C 344.400 330.220,344.040 330.400,343.600 330.400 C 343.160 330.400,342.800 330.220,342.800 330.000 C 342.800 329.734,296.600 329.600,205.000 329.600 C 113.400 329.600,67.200 329.466,67.200 329.200 C 67.200 328.980,66.840 328.800,66.400 328.800 C 65.960 328.800,65.600 328.620,65.600 328.400 C 65.600 328.180,65.240 328.000,64.800 328.000 C 64.360 328.000,64.000 327.820,64.000 327.600 C 64.000 327.380,63.724 327.200,63.387 327.200 C 62.833 327.200,61.779 326.340,59.107 323.706 C 57.169 321.796,56.400 320.805,56.400 320.214 C 56.400 319.876,56.220 319.600,56.000 319.600 C 55.778 319.600,55.600 318.533,55.600 317.200 C 55.600 315.867,55.778 314.800,56.000 314.800 C 56.257 314.800,56.400 310.667,56.400 303.200 C 56.400 295.733,56.543 291.600,56.800 291.600 C 57.020 291.600,57.200 290.880,57.200 290.000 C 57.200 289.120,57.362 288.400,57.561 288.400 C 57.759 288.400,58.047 287.320,58.200 286.000 C 58.353 284.680,58.641 283.600,58.839 283.600 C 59.038 283.600,59.200 283.322,59.200 282.982 C 59.200 282.182,60.982 280.400,61.782 280.400 C 62.122 280.400,62.400 280.220,62.400 280.000 C 62.400 279.780,62.760 279.600,63.200 279.600 C 63.640 279.600,64.000 279.420,64.000 279.200 C 64.000 278.980,64.360 278.800,64.800 278.800 C 65.240 278.800,65.600 278.620,65.600 278.400 C 65.600 278.180,66.140 278.000,66.800 278.000 C 67.460 278.000,68.000 277.820,68.000 277.600 C 68.000 277.349,70.467 277.200,74.600 277.200 C 78.733 277.200,81.200 277.349,81.200 277.600 C 81.200 277.855,84.600 278.000,90.600 278.000 C 96.600 278.000,100.000 277.855,100.000 277.600 C 100.000 277.380,100.360 277.200,100.800 277.200 C 101.240 277.200,101.600 277.380,101.600 277.600 C 101.600 277.866,134.000 278.000,198.000 278.000 C 262.000 278.000,294.400 277.866,294.400 277.600 C 294.400 277.380,294.676 277.200,295.013 277.200 C 295.351 277.200,296.257 276.570,297.027 275.800 C 297.797 275.030,298.601 274.400,298.813 274.400 C 299.026 274.400,299.200 274.080,299.200 273.688 C 299.200 273.297,299.560 272.717,300.000 272.400 C 300.440 272.083,300.800 271.503,300.800 271.112 C 300.800 270.720,300.980 270.400,301.200 270.400 C 301.465 270.400,301.596 249.041,301.588 207.100 L 301.576 143.800 300.360 142.800 C 299.692 142.250,298.533 141.215,297.786 140.500 C 297.038 139.785,296.151 139.200,295.813 139.200 C 295.476 139.200,295.200 139.020,295.200 138.800 C 295.200 138.553,293.133 138.400,289.800 138.400 C 286.467 138.400,284.400 138.553,284.400 138.800 C 284.400 139.065,263.800 139.200,223.400 139.200 C 183.000 139.200,162.400 139.065,162.400 138.800 C 162.400 138.537,152.533 138.400,133.600 138.400 C 114.667 138.400,104.800 138.537,104.800 138.800 C 104.800 139.061,98.400 139.200,86.400 139.200 C 74.400 139.200,68.000 139.061,68.000 138.800 C 68.000 138.580,67.280 138.400,66.400 138.400 C 65.520 138.400,64.800 138.220,64.800 138.000 C 64.800 137.780,64.440 137.600,64.000 137.600 C 63.560 137.600,63.200 137.420,63.200 137.200 C 63.200 136.980,62.840 136.800,62.400 136.800 C 61.960 136.800,61.600 136.620,61.600 136.400 C 61.600 136.180,61.240 136.000,60.800 136.000 C 60.360 136.000,60.000 135.820,60.000 135.600 C 60.000 135.380,59.652 135.200,59.227 135.200 C 58.802 135.200,58.340 134.840,58.200 134.400 C 58.060 133.960,57.675 133.600,57.344 133.600 C 55.920 133.600,55.600 132.577,55.600 128.029 C 55.600 125.343,55.757 123.600,56.000 123.600 C 56.257 123.600,56.400 119.533,56.400 112.200 C 56.400 104.867,56.257 100.800,56.000 100.800 C 55.105 100.800,55.519 93.033,56.449 92.388 C 56.916 92.065,57.533 91.575,57.820 91.300 C 58.108 91.025,58.496 90.800,58.683 90.800 C 58.870 90.800,59.283 90.440,59.600 90.000 C 59.917 89.560,60.497 89.200,60.888 89.200 C 61.280 89.200,61.600 89.020,61.600 88.800 C 61.600 88.580,61.960 88.400,62.400 88.400 C 62.840 88.400,63.200 88.220,63.200 88.000 C 63.200 87.780,63.560 87.600,64.000 87.600 C 64.440 87.600,64.800 87.420,64.800 87.200 C 64.800 86.980,65.340 86.800,66.000 86.800 C 66.660 86.800,67.200 86.620,67.200 86.400 C 67.200 86.134,113.933 86.000,206.600 86.000 C 299.267 86.000,346.000 86.134,346.000 86.400 M117.600 156.400 C 117.261 156.870,116.565 157.200,115.912 157.200 C 115.300 157.200,114.800 157.357,114.800 157.548 C 114.800 157.740,113.900 158.016,112.800 158.162 C 111.700 158.308,110.800 158.601,110.800 158.814 C 110.800 159.026,110.480 159.200,110.088 159.200 C 109.697 159.200,109.117 159.560,108.800 160.000 C 108.483 160.440,108.078 160.800,107.901 160.800 C 107.319 160.800,104.000 164.365,104.000 164.989 C 104.000 165.325,103.820 165.600,103.600 165.600 C 103.380 165.600,103.200 165.960,103.200 166.400 C 103.200 166.840,103.020 167.200,102.800 167.200 C 102.580 167.200,102.400 167.560,102.400 168.000 C 102.400 168.440,102.220 168.800,102.000 168.800 C 101.771 168.800,101.600 170.000,101.600 171.600 C 101.600 173.200,101.771 174.400,102.000 174.400 C 102.263 174.400,102.400 185.600,102.400 207.200 C 102.400 228.800,102.263 240.000,102.000 240.000 C 101.780 240.000,101.600 240.990,101.600 242.200 C 101.600 243.410,101.780 244.400,102.000 244.400 C 102.220 244.400,102.400 244.940,102.400 245.600 C 102.400 246.260,102.580 246.800,102.800 246.800 C 103.020 246.800,103.200 247.340,103.200 248.000 C 103.200 248.660,103.380 249.200,103.600 249.200 C 103.820 249.200,104.000 249.560,104.000 250.000 C 104.000 250.440,104.180 250.800,104.400 250.800 C 104.620 250.800,104.800 251.160,104.800 251.600 C 104.800 252.040,104.980 252.400,105.200 252.400 C 105.420 252.400,105.600 252.676,105.600 253.013 C 105.600 253.351,106.185 254.225,106.900 254.955 C 107.615 255.686,108.457 256.660,108.772 257.119 C 109.103 257.602,109.987 258.063,110.872 258.212 C 111.712 258.354,112.400 258.634,112.400 258.835 C 112.400 259.036,112.760 259.200,113.200 259.200 C 113.640 259.200,114.000 259.380,114.000 259.600 C 114.000 259.820,114.360 260.000,114.800 260.000 C 115.240 260.000,115.600 260.180,115.600 260.400 C 115.600 260.620,116.140 260.800,116.800 260.800 C 117.460 260.800,118.000 260.980,118.000 261.200 C 118.000 261.448,120.200 261.600,123.800 261.600 C 127.400 261.600,129.600 261.448,129.600 261.200 C 129.600 260.978,130.667 260.800,132.000 260.800 C 133.333 260.800,134.400 260.978,134.400 261.200 C 134.400 261.448,136.600 261.600,140.200 261.600 C 143.800 261.600,146.000 261.448,146.000 261.200 C 146.000 260.971,147.200 260.800,148.800 260.800 C 150.400 260.800,151.600 260.629,151.600 260.400 C 151.600 260.178,152.667 260.000,154.000 260.000 C 155.333 260.000,156.400 259.822,156.400 259.600 C 156.400 259.380,156.670 259.200,157.000 259.200 C 157.775 259.200,159.200 257.775,159.200 257.000 C 159.200 256.670,159.380 256.400,159.600 256.400 C 159.820 256.400,160.000 256.040,160.000 255.600 C 160.000 255.160,160.180 254.800,160.400 254.800 C 160.620 254.800,160.800 254.440,160.800 254.000 C 160.800 253.560,160.980 253.200,161.200 253.200 C 161.420 253.200,161.600 252.840,161.600 252.400 C 161.600 251.960,161.780 251.600,162.000 251.600 C 162.220 251.600,162.400 250.880,162.400 250.000 C 162.400 249.120,162.580 248.400,162.800 248.400 C 163.020 248.400,163.200 247.680,163.200 246.800 C 163.200 245.920,163.380 245.200,163.600 245.200 C 163.848 245.200,164.000 243.000,164.000 239.400 C 164.000 235.800,163.848 233.600,163.600 233.600 C 163.337 233.600,163.200 224.333,163.200 206.600 C 163.200 188.867,163.337 179.600,163.600 179.600 C 163.848 179.600,164.000 177.400,164.000 173.800 C 164.000 170.200,163.848 168.000,163.600 168.000 C 163.380 168.000,163.200 167.460,163.200 166.800 C 163.200 166.140,163.020 165.600,162.800 165.600 C 162.580 165.600,162.400 165.240,162.400 164.800 C 162.400 164.360,162.220 164.000,162.000 164.000 C 161.780 164.000,161.600 163.712,161.600 163.360 C 161.600 163.009,161.060 162.217,160.400 161.600 C 159.740 160.983,159.200 160.191,159.200 159.840 C 159.200 159.488,159.007 159.200,158.771 159.200 C 158.536 159.200,158.073 158.930,157.743 158.600 C 157.413 158.270,156.436 158.000,155.571 158.000 C 154.707 158.000,154.000 157.820,154.000 157.600 C 154.000 157.371,152.800 157.200,151.200 157.200 C 149.600 157.200,148.400 157.029,148.400 156.800 C 148.400 156.580,147.860 156.400,147.200 156.400 C 146.540 156.400,146.000 156.220,146.000 156.000 C 146.000 155.765,144.600 155.600,142.600 155.600 C 140.600 155.600,139.200 155.765,139.200 156.000 C 139.200 156.237,137.744 156.400,135.633 156.400 C 133.171 156.400,131.994 156.555,131.833 156.900 C 131.647 157.300,131.553 157.300,131.367 156.900 C 131.207 156.558,130.069 156.400,127.767 156.400 C 125.789 156.400,124.400 156.235,124.400 156.000 C 124.400 155.158,118.234 155.521,117.600 156.400 M119.600 158.800 C 119.600 159.059,124.667 159.200,134.000 159.200 C 143.333 159.200,148.400 159.341,148.400 159.600 C 148.400 159.820,149.300 160.000,150.400 160.000 C 151.500 160.000,152.400 160.180,152.400 160.400 C 152.400 160.620,153.255 160.805,154.300 160.812 C 155.922 160.822,156.346 161.002,157.200 162.037 C 157.750 162.704,158.605 163.681,159.100 164.207 C 159.595 164.733,160.000 165.442,160.000 165.782 C 160.000 166.122,160.180 166.400,160.400 166.400 C 160.620 166.400,160.800 166.760,160.800 167.200 C 160.800 167.640,160.980 168.000,161.200 168.000 C 161.445 168.000,161.600 169.933,161.600 173.000 C 161.600 176.067,161.445 178.000,161.200 178.000 C 160.937 178.000,160.800 187.800,160.800 206.600 C 160.800 225.400,160.937 235.200,161.200 235.200 C 161.445 235.200,161.600 237.133,161.600 240.200 C 161.600 243.267,161.445 245.200,161.200 245.200 C 160.980 245.200,160.800 245.740,160.800 246.400 C 160.800 247.060,160.620 247.600,160.400 247.600 C 160.180 247.600,160.000 248.140,160.000 248.800 C 160.000 249.460,159.820 250.000,159.600 250.000 C 159.380 250.000,159.200 250.360,159.200 250.800 C 159.200 251.240,159.020 251.600,158.800 251.600 C 158.580 251.600,158.400 251.947,158.400 252.371 C 158.400 252.796,158.130 253.413,157.800 253.743 C 157.470 254.073,157.200 254.626,157.200 254.971 C 157.200 255.403,156.824 255.600,156.000 255.600 C 155.340 255.600,154.800 255.780,154.800 256.000 C 154.800 256.220,154.260 256.400,153.600 256.400 C 152.940 256.400,152.400 256.580,152.400 256.800 C 152.400 257.020,151.515 257.200,150.433 257.200 C 149.352 257.200,148.407 257.365,148.333 257.568 C 148.116 258.168,117.496 258.287,117.296 257.689 C 117.207 257.420,116.788 257.200,116.367 257.200 C 115.945 257.200,115.600 257.020,115.600 256.800 C 115.600 256.580,115.327 256.400,114.994 256.400 C 114.098 256.400,108.564 250.708,108.252 249.467 C 108.105 248.880,107.808 248.400,107.592 248.400 C 107.377 248.400,107.200 248.040,107.200 247.600 C 107.200 247.160,107.020 246.800,106.800 246.800 C 106.580 246.800,106.400 246.440,106.400 246.000 C 106.400 245.560,106.220 245.200,106.000 245.200 C 105.751 245.200,105.600 242.867,105.600 239.000 C 105.600 235.133,105.751 232.800,106.000 232.800 C 106.254 232.800,106.400 229.667,106.400 224.200 C 106.400 218.733,106.254 215.600,106.000 215.600 C 105.745 215.600,105.600 212.200,105.600 206.200 C 105.600 200.200,105.745 196.800,106.000 196.800 C 106.614 196.800,106.518 190.122,105.900 189.833 C 105.500 189.647,105.500 189.553,105.900 189.367 C 106.492 189.091,106.581 186.800,106.000 186.800 C 105.400 186.800,105.495 182.116,106.100 181.833 C 106.500 181.647,106.500 181.553,106.100 181.367 C 105.734 181.196,105.600 179.596,105.600 175.400 C 105.600 171.176,105.468 169.619,105.100 169.487 C 104.761 169.365,104.890 169.050,105.500 168.507 C 105.995 168.067,106.400 167.494,106.400 167.235 C 106.400 166.743,108.173 164.800,108.621 164.800 C 108.763 164.800,109.383 164.260,110.000 163.600 C 110.617 162.940,111.409 162.400,111.760 162.400 C 112.112 162.400,112.400 162.220,112.400 162.000 C 112.400 161.780,112.760 161.600,113.200 161.600 C 113.640 161.600,114.000 161.420,114.000 161.200 C 114.000 160.980,114.360 160.800,114.800 160.800 C 115.240 160.800,115.600 160.620,115.600 160.400 C 115.600 160.180,115.960 160.000,116.400 160.000 C 116.840 160.000,117.200 159.820,117.200 159.600 C 117.200 159.380,117.560 159.200,118.000 159.200 C 118.440 159.200,118.800 159.020,118.800 158.800 C 118.800 158.580,118.980 158.400,119.200 158.400 C 119.420 158.400,119.600 158.580,119.600 158.800 " stroke="none" fill="#8db5d8" fill-rule="evenodd"></path><path id="path2" d="M68.800 88.000 C 68.800 88.220,68.260 88.400,67.600 88.400 C 66.940 88.400,66.400 88.580,66.400 88.800 C 66.400 89.020,66.040 89.200,65.600 89.200 C 65.160 89.200,64.800 89.380,64.800 89.600 C 64.800 89.820,64.480 90.000,64.088 90.000 C 63.697 90.000,63.117 90.360,62.800 90.800 C 62.483 91.240,61.922 91.600,61.554 91.600 C 59.670 91.600,58.400 93.758,58.400 96.960 C 58.400 98.720,58.568 100.000,58.800 100.000 C 59.058 100.000,59.200 104.400,59.200 112.400 C 59.200 120.400,59.058 124.800,58.800 124.800 C 58.565 124.800,58.400 126.206,58.400 128.218 C 58.400 131.796,59.265 133.600,60.982 133.600 C 61.322 133.600,61.600 133.780,61.600 134.000 C 61.600 134.220,61.960 134.400,62.400 134.400 C 62.840 134.400,63.200 134.580,63.200 134.800 C 63.200 135.020,63.560 135.200,64.000 135.200 C 64.440 135.200,64.800 135.380,64.800 135.600 C 64.800 135.820,65.160 136.000,65.600 136.000 C 66.040 136.000,66.400 136.180,66.400 136.400 C 66.400 136.620,66.940 136.800,67.600 136.800 C 68.260 136.800,68.800 136.980,68.800 137.200 C 68.800 137.829,81.080 137.731,81.336 137.100 C 81.489 136.722,81.652 136.747,82.000 137.200 C 82.348 137.653,82.511 137.678,82.664 137.300 C 82.904 136.709,85.200 136.618,85.200 137.200 C 85.200 137.420,85.560 137.600,86.000 137.600 C 86.440 137.600,86.800 137.420,86.800 137.200 C 86.800 136.934,121.800 136.800,191.000 136.800 C 260.200 136.800,295.200 136.934,295.200 137.200 C 295.200 137.420,295.700 137.600,296.312 137.600 C 296.965 137.600,297.661 137.930,298.000 138.400 C 298.317 138.840,298.813 139.200,299.102 139.200 C 299.721 139.200,302.400 141.788,302.400 142.387 C 302.400 142.614,302.580 142.800,302.800 142.800 C 303.048 142.800,303.200 144.933,303.200 148.400 C 303.200 151.867,303.352 154.000,303.600 154.000 C 303.865 154.000,304.000 173.533,304.000 211.800 C 304.000 250.067,303.865 269.600,303.600 269.600 C 303.380 269.600,303.200 270.140,303.200 270.800 C 303.200 271.460,303.020 272.000,302.800 272.000 C 302.580 272.000,302.400 272.360,302.400 272.800 C 302.400 273.240,302.220 273.600,302.000 273.600 C 301.780 273.600,301.600 273.784,301.600 274.009 C 301.600 274.656,297.283 278.800,296.609 278.800 C 296.274 278.800,296.000 278.980,296.000 279.200 C 296.000 279.420,295.640 279.600,295.200 279.600 C 294.760 279.600,294.400 279.780,294.400 280.000 C 294.400 280.245,292.467 280.400,289.400 280.400 C 286.333 280.400,284.400 280.245,284.400 280.000 C 284.400 279.734,248.067 279.600,176.200 279.600 C 104.333 279.600,68.000 279.734,68.000 280.000 C 68.000 280.220,67.460 280.400,66.800 280.400 C 66.140 280.400,65.600 280.580,65.600 280.800 C 65.600 281.020,65.240 281.200,64.800 281.200 C 64.267 281.200,64.000 281.467,64.000 282.000 C 64.000 282.440,63.820 282.800,63.600 282.800 C 63.380 282.800,63.200 283.160,63.200 283.600 C 63.200 284.040,63.020 284.400,62.800 284.400 C 62.580 284.400,62.400 284.760,62.400 285.200 C 62.400 285.640,62.220 286.000,62.000 286.000 C 61.780 286.000,61.600 286.540,61.600 287.200 C 61.600 287.860,61.420 288.400,61.200 288.400 C 60.980 288.400,60.800 288.940,60.800 289.600 C 60.800 290.260,60.620 290.800,60.400 290.800 C 60.180 290.800,60.000 291.070,60.000 291.400 C 60.000 291.730,59.820 292.000,59.600 292.000 C 59.342 292.000,59.200 296.467,59.200 304.600 C 59.200 312.733,59.058 317.200,58.800 317.200 C 56.770 317.200,62.008 323.914,64.532 324.547 C 65.119 324.695,65.600 324.992,65.600 325.208 C 65.600 325.423,65.960 325.600,66.400 325.600 C 66.840 325.600,67.200 325.780,67.200 326.000 C 67.200 326.220,67.560 326.400,68.000 326.400 C 68.440 326.400,68.800 326.580,68.800 326.800 C 68.800 327.060,74.133 327.200,84.000 327.200 C 93.867 327.200,99.200 327.060,99.200 326.800 C 99.200 326.534,138.400 326.400,216.000 326.400 C 293.600 326.400,332.800 326.534,332.800 326.800 C 332.800 327.049,335.080 327.200,338.840 327.200 L 344.879 327.200 346.000 326.000 C 346.617 325.340,347.399 324.800,347.738 324.800 C 348.077 324.800,349.445 323.730,350.777 322.422 L 353.200 320.044 353.200 315.022 C 353.200 311.941,353.045 310.000,352.800 310.000 C 352.534 310.000,352.400 275.267,352.400 206.600 C 352.400 137.933,352.534 103.200,352.800 103.200 C 353.042 103.200,353.200 101.478,353.200 98.833 C 353.200 95.750,353.344 94.419,353.689 94.304 C 354.317 94.094,352.270 92.000,351.436 92.000 C 351.106 92.000,350.386 91.550,349.836 91.000 C 349.286 90.450,348.558 90.000,348.218 90.000 C 347.878 90.000,347.600 89.820,347.600 89.600 C 347.600 89.380,347.240 89.200,346.800 89.200 C 346.360 89.200,346.000 89.020,346.000 88.800 C 346.000 88.580,345.640 88.400,345.200 88.400 C 344.760 88.400,344.400 88.220,344.400 88.000 C 344.400 87.757,342.600 87.600,339.800 87.600 C 337.000 87.600,335.200 87.757,335.200 88.000 C 335.200 88.266,291.933 88.400,206.200 88.400 C 120.467 88.400,77.200 88.266,77.200 88.000 C 77.200 87.759,75.533 87.600,73.000 87.600 C 70.467 87.600,68.800 87.759,68.800 88.000 M74.400 91.200 C 74.400 91.466,118.667 91.600,206.400 91.600 C 294.133 91.600,338.400 91.466,338.400 91.200 C 338.400 90.969,339.667 90.800,341.400 90.800 C 343.094 90.800,344.400 90.971,344.400 91.192 C 344.400 91.408,344.895 91.707,345.500 91.856 C 346.105 92.006,346.891 92.459,347.247 92.864 C 347.603 93.269,348.188 93.600,348.547 93.600 C 348.906 93.600,349.200 93.780,349.200 94.000 C 349.200 94.220,349.020 94.400,348.800 94.400 C 348.552 94.400,348.400 96.533,348.400 100.000 C 348.400 103.467,348.248 105.600,348.000 105.600 C 347.745 105.600,347.600 108.867,347.600 114.600 C 347.600 120.333,347.745 123.600,348.000 123.600 C 348.256 123.600,348.400 127.200,348.400 133.600 C 348.400 140.000,348.256 143.600,348.000 143.600 C 347.749 143.600,347.600 146.133,347.600 150.400 C 347.600 154.667,347.749 157.200,348.000 157.200 C 348.643 157.200,348.544 231.066,347.900 231.367 C 347.500 231.553,347.500 231.647,347.900 231.833 C 348.539 232.131,348.637 256.400,348.000 256.400 C 347.738 256.400,347.600 265.133,347.600 281.800 C 347.600 298.467,347.738 307.200,348.000 307.200 C 348.249 307.200,348.400 309.470,348.400 313.209 L 348.400 319.217 346.209 321.409 C 344.085 323.533,340.800 324.621,340.800 323.200 C 340.800 322.934,296.133 322.800,207.600 322.800 C 119.067 322.800,74.400 322.934,74.400 323.200 C 74.400 324.032,69.030 323.674,68.400 322.800 C 68.083 322.360,67.587 322.000,67.298 322.000 C 65.542 322.000,64.000 319.294,64.000 316.213 C 64.000 314.471,64.169 313.200,64.400 313.200 C 64.654 313.200,64.800 310.200,64.800 305.000 C 64.800 299.800,64.654 296.800,64.400 296.800 C 64.180 296.800,64.000 296.080,64.000 295.200 C 64.000 294.320,64.180 293.600,64.400 293.600 C 64.620 293.600,64.800 293.240,64.800 292.800 C 64.800 292.360,64.980 292.000,65.200 292.000 C 65.420 292.000,65.600 291.730,65.600 291.400 C 65.600 291.070,65.780 290.800,66.000 290.800 C 66.220 290.800,66.400 290.440,66.400 290.000 C 66.400 289.560,66.580 289.200,66.800 289.200 C 67.020 289.200,67.200 288.880,67.200 288.488 C 67.200 288.097,67.560 287.517,68.000 287.200 C 68.440 286.883,68.800 286.303,68.800 285.912 C 68.800 285.467,69.100 285.200,69.600 285.200 C 70.040 285.200,70.400 285.380,70.400 285.600 C 70.400 285.831,71.667 286.000,73.400 286.000 C 75.133 286.000,76.400 286.169,76.400 286.400 C 76.400 286.666,112.400 286.800,183.600 286.800 C 254.800 286.800,290.800 286.934,290.800 287.200 C 290.800 287.420,291.610 287.600,292.600 287.600 C 293.590 287.600,294.400 287.420,294.400 287.200 C 294.400 286.980,294.760 286.800,295.200 286.800 C 295.640 286.800,296.000 286.620,296.000 286.400 C 296.000 286.180,296.275 286.000,296.611 286.000 C 297.305 286.000,300.800 282.650,300.800 281.985 C 300.800 281.744,301.700 280.671,302.800 279.600 C 304.174 278.262,304.800 277.331,304.800 276.626 C 304.800 276.062,304.980 275.600,305.200 275.600 C 305.420 275.600,305.600 275.150,305.600 274.600 C 305.600 274.050,305.780 273.600,306.000 273.600 C 306.220 273.600,306.400 272.946,306.400 272.147 C 306.400 271.144,306.679 270.446,307.300 269.893 C 307.910 269.350,308.039 269.035,307.700 268.913 C 307.338 268.783,307.200 267.418,307.200 263.967 C 307.200 261.056,307.044 259.200,306.800 259.200 C 306.536 259.200,306.400 242.933,306.400 211.200 C 306.400 179.467,306.536 163.200,306.800 163.200 C 307.035 163.200,307.200 161.800,307.200 159.800 C 307.200 157.800,307.035 156.400,306.800 156.400 C 306.548 156.400,306.400 153.733,306.400 149.200 C 306.400 144.667,306.252 142.000,306.000 142.000 C 305.780 142.000,305.600 141.550,305.600 141.000 C 305.600 140.450,305.420 140.000,305.200 140.000 C 304.980 140.000,304.800 139.722,304.800 139.382 C 304.800 138.626,303.037 136.800,302.306 136.800 C 302.015 136.800,301.517 136.440,301.200 136.000 C 300.798 135.443,300.165 135.200,299.112 135.200 C 298.280 135.200,297.600 135.020,297.600 134.800 C 297.600 134.534,259.067 134.400,182.800 134.400 C 106.533 134.400,68.000 134.266,68.000 134.000 C 68.000 133.780,67.640 133.600,67.200 133.600 C 66.760 133.600,66.400 133.420,66.400 133.200 C 66.400 132.980,66.117 132.800,65.771 132.800 C 64.404 132.800,64.000 131.757,64.000 128.229 C 64.000 126.210,64.164 124.800,64.400 124.800 C 64.657 124.800,64.800 120.800,64.800 113.600 C 64.800 106.400,64.657 102.400,64.400 102.400 C 64.159 102.400,64.000 100.724,64.000 98.171 C 64.000 93.953,64.343 92.800,65.600 92.800 C 65.851 92.800,66.327 92.530,66.657 92.200 C 66.987 91.870,67.604 91.600,68.029 91.600 C 68.453 91.600,68.800 91.420,68.800 91.200 C 68.800 90.971,70.000 90.800,71.600 90.800 C 73.200 90.800,74.400 90.971,74.400 91.200 M118.000 162.000 C 118.000 162.220,117.640 162.400,117.200 162.400 C 116.760 162.400,116.400 162.580,116.400 162.800 C 116.400 163.020,116.040 163.200,115.600 163.200 C 115.160 163.200,114.800 163.380,114.800 163.600 C 114.800 163.820,114.512 164.000,114.160 164.000 C 113.809 164.000,113.017 164.540,112.400 165.200 C 111.783 165.860,111.063 166.400,110.800 166.400 C 110.537 166.400,109.823 166.933,109.214 167.584 L 108.108 168.769 108.308 174.484 C 108.418 177.628,108.664 180.260,108.854 180.333 C 109.334 180.518,109.304 233.496,108.824 233.667 C 107.930 233.983,108.217 244.747,109.140 245.548 C 109.613 245.958,110.000 246.500,110.000 246.753 C 110.000 247.387,116.667 254.000,117.306 254.000 C 117.591 254.000,118.083 254.360,118.400 254.800 C 119.011 255.647,122.000 255.979,122.000 255.200 C 122.000 254.942,126.400 254.800,134.400 254.800 C 142.400 254.800,146.800 254.658,146.800 254.400 C 146.800 254.180,147.340 254.000,148.000 254.000 C 148.660 254.000,149.200 253.820,149.200 253.600 C 149.200 253.380,149.740 253.200,150.400 253.200 C 151.060 253.200,151.600 253.020,151.600 252.800 C 151.600 252.580,152.140 252.400,152.800 252.400 C 153.460 252.400,154.000 252.220,154.000 252.000 C 154.000 251.780,154.458 251.600,155.018 251.600 C 156.531 251.600,157.842 250.049,158.168 247.875 C 158.323 246.844,158.618 246.000,158.825 246.000 C 159.056 246.000,159.200 231.639,159.200 208.600 C 159.200 183.933,159.336 171.200,159.600 171.200 C 159.820 171.200,160.000 170.660,160.000 170.000 C 160.000 169.340,159.820 168.800,159.600 168.800 C 159.380 168.800,159.200 168.440,159.200 168.000 C 159.200 167.560,159.023 167.200,158.808 167.200 C 158.592 167.200,158.291 166.707,158.140 166.104 C 157.772 164.639,157.071 164.000,155.829 164.000 C 155.263 164.000,154.800 163.820,154.800 163.600 C 154.800 163.380,154.080 163.200,153.200 163.200 C 152.320 163.200,151.600 163.020,151.600 162.800 C 151.600 162.580,150.700 162.400,149.600 162.400 C 148.500 162.400,147.600 162.220,147.600 162.000 C 147.600 161.741,142.400 161.600,132.800 161.600 C 123.200 161.600,118.000 161.741,118.000 162.000 M146.000 166.000 C 146.000 166.220,146.540 166.400,147.200 166.400 C 147.860 166.400,148.400 166.580,148.400 166.800 C 148.400 167.020,148.940 167.200,149.600 167.200 C 150.260 167.200,150.800 167.380,150.800 167.600 C 150.800 167.820,151.520 168.000,152.400 168.000 C 153.280 168.000,154.000 168.180,154.000 168.400 C 154.000 168.620,154.360 168.800,154.800 168.800 C 155.467 168.800,155.600 169.067,155.600 170.400 C 155.600 171.280,155.420 172.000,155.200 172.000 C 154.980 172.000,154.800 172.630,154.800 173.400 C 154.800 174.170,154.620 174.800,154.400 174.800 C 154.178 174.800,154.000 175.867,154.000 177.200 C 154.000 178.533,153.822 179.600,153.600 179.600 C 153.337 179.600,153.200 189.133,153.200 207.400 C 153.200 225.667,153.337 235.200,153.600 235.200 C 153.820 235.200,154.000 236.100,154.000 237.200 C 154.000 238.300,154.180 239.200,154.400 239.200 C 154.620 239.200,154.800 239.830,154.800 240.600 C 154.800 241.370,154.980 242.000,155.200 242.000 C 155.420 242.000,155.600 242.540,155.600 243.200 C 155.600 244.133,155.422 244.400,154.800 244.400 C 154.360 244.400,154.000 244.580,154.000 244.800 C 154.000 245.020,153.640 245.200,153.200 245.200 C 152.760 245.200,152.400 245.380,152.400 245.600 C 152.400 245.820,152.040 246.000,151.600 246.000 C 151.160 246.000,150.800 246.180,150.800 246.400 C 150.800 246.620,150.260 246.800,149.600 246.800 C 148.940 246.800,148.400 246.980,148.400 247.200 C 148.400 247.420,148.040 247.600,147.600 247.600 C 147.160 247.600,146.800 247.780,146.800 248.000 C 146.800 248.220,146.440 248.400,146.000 248.400 C 145.560 248.400,145.200 248.580,145.200 248.800 C 145.200 249.430,132.128 249.332,131.833 248.700 C 131.647 248.300,131.553 248.300,131.367 248.700 C 131.195 249.067,129.547 249.200,125.159 249.200 L 119.185 249.200 116.593 246.607 L 114.000 244.015 114.000 240.407 C 114.000 238.269,114.163 236.800,114.400 236.800 C 114.663 236.800,114.800 226.600,114.800 207.000 C 114.800 187.400,114.663 177.200,114.400 177.200 C 114.160 177.200,114.000 175.594,114.000 173.182 C 114.000 169.030,114.763 167.200,116.494 167.200 C 116.785 167.200,117.283 166.840,117.600 166.400 C 118.252 165.495,146.000 165.105,146.000 166.000 " stroke="none" fill="#4c8cc4" fill-rule="evenodd"></path><path id="path3" d="M67.200 86.400 C 67.200 86.620,66.660 86.800,66.000 86.800 C 65.340 86.800,64.800 86.980,64.800 87.200 C 64.800 87.420,64.440 87.600,64.000 87.600 C 63.560 87.600,63.200 87.780,63.200 88.000 C 63.200 88.220,62.840 88.400,62.400 88.400 C 61.960 88.400,61.600 88.580,61.600 88.800 C 61.600 89.020,61.280 89.200,60.888 89.200 C 60.497 89.200,59.917 89.560,59.600 90.000 C 59.283 90.440,58.870 90.800,58.683 90.800 C 58.496 90.800,58.108 91.025,57.820 91.300 C 57.533 91.575,56.916 92.065,56.449 92.388 C 55.519 93.033,55.105 100.800,56.000 100.800 C 56.257 100.800,56.400 104.867,56.400 112.200 C 56.400 119.533,56.257 123.600,56.000 123.600 C 55.757 123.600,55.600 125.343,55.600 128.029 C 55.600 132.577,55.920 133.600,57.344 133.600 C 57.675 133.600,58.060 133.960,58.200 134.400 C 58.340 134.840,58.802 135.200,59.227 135.200 C 59.652 135.200,60.000 135.380,60.000 135.600 C 60.000 135.820,60.360 136.000,60.800 136.000 C 61.240 136.000,61.600 136.180,61.600 136.400 C 61.600 136.620,61.960 136.800,62.400 136.800 C 62.840 136.800,63.200 136.980,63.200 137.200 C 63.200 137.420,63.560 137.600,64.000 137.600 C 64.440 137.600,64.800 137.780,64.800 138.000 C 64.800 138.220,65.520 138.400,66.400 138.400 C 67.280 138.400,68.000 138.580,68.000 138.800 C 68.000 139.061,74.400 139.200,86.400 139.200 C 98.400 139.200,104.800 139.061,104.800 138.800 C 104.800 138.537,114.667 138.400,133.600 138.400 C 152.533 138.400,162.400 138.537,162.400 138.800 C 162.400 139.065,183.000 139.200,223.400 139.200 C 263.800 139.200,284.400 139.065,284.400 138.800 C 284.400 138.553,286.467 138.400,289.800 138.400 C 293.133 138.400,295.200 138.553,295.200 138.800 C 295.200 139.020,295.476 139.200,295.813 139.200 C 296.151 139.200,297.038 139.785,297.786 140.500 C 298.533 141.215,299.692 142.250,300.360 142.800 L 301.576 143.800 301.588 207.100 C 301.596 249.041,301.465 270.400,301.200 270.400 C 300.980 270.400,300.800 270.720,300.800 271.112 C 300.800 271.503,300.440 272.083,300.000 272.400 C 299.560 272.717,299.200 273.297,299.200 273.688 C 299.200 274.080,299.026 274.400,298.813 274.400 C 298.601 274.400,297.797 275.030,297.027 275.800 C 296.257 276.570,295.351 277.200,295.013 277.200 C 294.676 277.200,294.400 277.380,294.400 277.600 C 294.400 277.866,262.000 278.000,198.000 278.000 C 134.000 278.000,101.600 277.866,101.600 277.600 C 101.600 277.380,101.240 277.200,100.800 277.200 C 100.360 277.200,100.000 277.380,100.000 277.600 C 100.000 277.855,96.600 278.000,90.600 278.000 C 84.600 278.000,81.200 277.855,81.200 277.600 C 81.200 277.349,78.733 277.200,74.600 277.200 C 70.467 277.200,68.000 277.349,68.000 277.600 C 68.000 277.820,67.460 278.000,66.800 278.000 C 66.140 278.000,65.600 278.180,65.600 278.400 C 65.600 278.620,65.240 278.800,64.800 278.800 C 64.360 278.800,64.000 278.980,64.000 279.200 C 64.000 279.420,63.640 279.600,63.200 279.600 C 62.760 279.600,62.400 279.780,62.400 280.000 C 62.400 280.220,62.122 280.400,61.782 280.400 C 60.982 280.400,59.200 282.182,59.200 282.982 C 59.200 283.322,59.038 283.600,58.839 283.600 C 58.641 283.600,58.353 284.680,58.200 286.000 C 58.047 287.320,57.759 288.400,57.561 288.400 C 57.362 288.400,57.200 289.120,57.200 290.000 C 57.200 290.880,57.020 291.600,56.800 291.600 C 56.543 291.600,56.400 295.733,56.400 303.200 C 56.400 310.667,56.257 314.800,56.000 314.800 C 55.778 314.800,55.600 315.867,55.600 317.200 C 55.600 318.533,55.778 319.600,56.000 319.600 C 56.220 319.600,56.400 319.876,56.400 320.214 C 56.400 320.805,57.169 321.796,59.107 323.706 C 61.779 326.340,62.833 327.200,63.387 327.200 C 63.724 327.200,64.000 327.380,64.000 327.600 C 64.000 327.820,64.360 328.000,64.800 328.000 C 65.240 328.000,65.600 328.180,65.600 328.400 C 65.600 328.620,65.960 328.800,66.400 328.800 C 66.840 328.800,67.200 328.980,67.200 329.200 C 67.200 329.466,113.400 329.600,205.000 329.600 C 296.600 329.600,342.800 329.734,342.800 330.000 C 342.800 330.220,343.160 330.400,343.600 330.400 C 344.040 330.400,344.400 330.220,344.400 330.000 C 344.400 329.780,344.760 329.600,345.200 329.600 C 345.640 329.600,346.000 329.420,346.000 329.200 C 346.000 328.980,346.288 328.800,346.640 328.800 C 346.991 328.800,347.783 328.260,348.400 327.600 C 349.017 326.940,349.727 326.400,349.979 326.400 C 350.230 326.400,350.853 325.995,351.363 325.500 C 351.873 325.005,352.674 324.335,353.145 324.012 C 353.615 323.688,354.000 323.175,354.000 322.872 C 354.000 322.569,354.540 321.817,355.200 321.200 C 356.445 320.037,357.148 311.600,356.000 311.600 C 355.734 311.600,355.600 276.333,355.600 206.600 C 355.600 136.867,355.734 101.600,356.000 101.600 C 356.908 101.600,356.482 93.033,355.542 92.388 C 355.070 92.065,354.086 91.215,353.355 90.500 C 352.625 89.785,351.751 89.200,351.413 89.200 C 351.076 89.200,350.800 89.020,350.800 88.800 C 350.800 88.580,350.440 88.400,350.000 88.400 C 349.560 88.400,349.200 88.220,349.200 88.000 C 349.200 87.780,348.840 87.600,348.400 87.600 C 347.960 87.600,347.600 87.420,347.600 87.200 C 347.600 86.980,347.240 86.800,346.800 86.800 C 346.360 86.800,346.000 86.620,346.000 86.400 C 346.000 86.134,299.267 86.000,206.600 86.000 C 113.933 86.000,67.200 86.134,67.200 86.400 M77.200 88.000 C 77.200 88.266,120.467 88.400,206.200 88.400 C 291.933 88.400,335.200 88.266,335.200 88.000 C 335.200 87.757,337.000 87.600,339.800 87.600 C 342.600 87.600,344.400 87.757,344.400 88.000 C 344.400 88.220,344.760 88.400,345.200 88.400 C 345.640 88.400,346.000 88.580,346.000 88.800 C 346.000 89.020,346.360 89.200,346.800 89.200 C 347.240 89.200,347.600 89.380,347.600 89.600 C 347.600 89.820,347.878 90.000,348.218 90.000 C 348.558 90.000,349.286 90.450,349.836 91.000 C 350.386 91.550,351.106 92.000,351.436 92.000 C 352.270 92.000,354.317 94.094,353.689 94.304 C 353.344 94.419,353.200 95.750,353.200 98.833 C 353.200 101.478,353.042 103.200,352.800 103.200 C 352.534 103.200,352.400 137.933,352.400 206.600 C 352.400 275.267,352.534 310.000,352.800 310.000 C 353.045 310.000,353.200 311.941,353.200 315.022 L 353.200 320.044 350.777 322.422 C 349.445 323.730,348.077 324.800,347.738 324.800 C 347.399 324.800,346.617 325.340,346.000 326.000 L 344.879 327.200 338.840 327.200 C 335.080 327.200,332.800 327.049,332.800 326.800 C 332.800 326.534,293.600 326.400,216.000 326.400 C 138.400 326.400,99.200 326.534,99.200 326.800 C 99.200 327.060,93.867 327.200,84.000 327.200 C 74.133 327.200,68.800 327.060,68.800 326.800 C 68.800 326.580,68.440 326.400,68.000 326.400 C 67.560 326.400,67.200 326.220,67.200 326.000 C 67.200 325.780,66.840 325.600,66.400 325.600 C 65.960 325.600,65.600 325.423,65.600 325.208 C 65.600 324.992,65.119 324.695,64.532 324.547 C 62.008 323.914,56.770 317.200,58.800 317.200 C 59.058 317.200,59.200 312.733,59.200 304.600 C 59.200 296.467,59.342 292.000,59.600 292.000 C 59.820 292.000,60.000 291.730,60.000 291.400 C 60.000 291.070,60.180 290.800,60.400 290.800 C 60.620 290.800,60.800 290.260,60.800 289.600 C 60.800 288.940,60.980 288.400,61.200 288.400 C 61.420 288.400,61.600 287.860,61.600 287.200 C 61.600 286.540,61.780 286.000,62.000 286.000 C 62.220 286.000,62.400 285.640,62.400 285.200 C 62.400 284.760,62.580 284.400,62.800 284.400 C 63.020 284.400,63.200 284.040,63.200 283.600 C 63.200 283.160,63.380 282.800,63.600 282.800 C 63.820 282.800,64.000 282.440,64.000 282.000 C 64.000 281.467,64.267 281.200,64.800 281.200 C 65.240 281.200,65.600 281.020,65.600 280.800 C 65.600 280.580,66.140 280.400,66.800 280.400 C 67.460 280.400,68.000 280.220,68.000 280.000 C 68.000 279.734,104.333 279.600,176.200 279.600 C 248.067 279.600,284.400 279.734,284.400 280.000 C 284.400 280.245,286.333 280.400,289.400 280.400 C 292.467 280.400,294.400 280.245,294.400 280.000 C 294.400 279.780,294.760 279.600,295.200 279.600 C 295.640 279.600,296.000 279.420,296.000 279.200 C 296.000 278.980,296.274 278.800,296.609 278.800 C 297.283 278.800,301.600 274.656,301.600 274.009 C 301.600 273.784,301.780 273.600,302.000 273.600 C 302.220 273.600,302.400 273.240,302.400 272.800 C 302.400 272.360,302.580 272.000,302.800 272.000 C 303.020 272.000,303.200 271.460,303.200 270.800 C 303.200 270.140,303.380 269.600,303.600 269.600 C 303.865 269.600,304.000 250.067,304.000 211.800 C 304.000 173.533,303.865 154.000,303.600 154.000 C 303.352 154.000,303.200 151.867,303.200 148.400 C 303.200 144.933,303.048 142.800,302.800 142.800 C 302.580 142.800,302.400 142.614,302.400 142.387 C 302.400 141.788,299.721 139.200,299.102 139.200 C 298.813 139.200,298.317 138.840,298.000 138.400 C 297.661 137.930,296.965 137.600,296.312 137.600 C 295.700 137.600,295.200 137.420,295.200 137.200 C 295.200 136.934,260.200 136.800,191.000 136.800 C 121.800 136.800,86.800 136.934,86.800 137.200 C 86.800 137.420,86.440 137.600,86.000 137.600 C 85.560 137.600,85.200 137.420,85.200 137.200 C 85.200 136.618,82.904 136.709,82.664 137.300 C 82.511 137.678,82.348 137.653,82.000 137.200 C 81.652 136.747,81.489 136.722,81.336 137.100 C 81.080 137.731,68.800 137.829,68.800 137.200 C 68.800 136.980,68.260 136.800,67.600 136.800 C 66.940 136.800,66.400 136.620,66.400 136.400 C 66.400 136.180,66.040 136.000,65.600 136.000 C 65.160 136.000,64.800 135.820,64.800 135.600 C 64.800 135.380,64.440 135.200,64.000 135.200 C 63.560 135.200,63.200 135.020,63.200 134.800 C 63.200 134.580,62.840 134.400,62.400 134.400 C 61.960 134.400,61.600 134.220,61.600 134.000 C 61.600 133.780,61.322 133.600,60.982 133.600 C 59.265 133.600,58.400 131.796,58.400 128.218 C 58.400 126.206,58.565 124.800,58.800 124.800 C 59.058 124.800,59.200 120.400,59.200 112.400 C 59.200 104.400,59.058 100.000,58.800 100.000 C 58.568 100.000,58.400 98.720,58.400 96.960 C 58.400 93.758,59.670 91.600,61.554 91.600 C 61.922 91.600,62.483 91.240,62.800 90.800 C 63.117 90.360,63.697 90.000,64.088 90.000 C 64.480 90.000,64.800 89.820,64.800 89.600 C 64.800 89.380,65.160 89.200,65.600 89.200 C 66.040 89.200,66.400 89.020,66.400 88.800 C 66.400 88.580,66.940 88.400,67.600 88.400 C 68.260 88.400,68.800 88.220,68.800 88.000 C 68.800 87.759,70.467 87.600,73.000 87.600 C 75.533 87.600,77.200 87.759,77.200 88.000 M118.800 158.800 C 118.800 159.020,118.440 159.200,118.000 159.200 C 117.560 159.200,117.200 159.380,117.200 159.600 C 117.200 159.820,116.840 160.000,116.400 160.000 C 115.960 160.000,115.600 160.180,115.600 160.400 C 115.600 160.620,115.240 160.800,114.800 160.800 C 114.360 160.800,114.000 160.980,114.000 161.200 C 114.000 161.420,113.640 161.600,113.200 161.600 C 112.760 161.600,112.400 161.780,112.400 162.000 C 112.400 162.220,112.112 162.400,111.760 162.400 C 111.409 162.400,110.617 162.940,110.000 163.600 C 109.383 164.260,108.763 164.800,108.621 164.800 C 108.173 164.800,106.400 166.743,106.400 167.235 C 106.400 167.494,105.995 168.067,105.500 168.507 C 104.890 169.050,104.761 169.365,105.100 169.487 C 105.468 169.619,105.600 171.176,105.600 175.400 C 105.600 179.596,105.734 181.196,106.100 181.367 C 106.500 181.553,106.500 181.647,106.100 181.833 C 105.495 182.116,105.400 186.800,106.000 186.800 C 106.581 186.800,106.492 189.091,105.900 189.367 C 105.500 189.553,105.500 189.647,105.900 189.833 C 106.518 190.122,106.614 196.800,106.000 196.800 C 105.745 196.800,105.600 200.200,105.600 206.200 C 105.600 212.200,105.745 215.600,106.000 215.600 C 106.254 215.600,106.400 218.733,106.400 224.200 C 106.400 229.667,106.254 232.800,106.000 232.800 C 105.751 232.800,105.600 235.133,105.600 239.000 C 105.600 242.867,105.751 245.200,106.000 245.200 C 106.220 245.200,106.400 245.560,106.400 246.000 C 106.400 246.440,106.580 246.800,106.800 246.800 C 107.020 246.800,107.200 247.160,107.200 247.600 C 107.200 248.040,107.377 248.400,107.592 248.400 C 107.808 248.400,108.105 248.880,108.252 249.467 C 108.564 250.708,114.098 256.400,114.994 256.400 C 115.327 256.400,115.600 256.580,115.600 256.800 C 115.600 257.020,115.945 257.200,116.367 257.200 C 116.788 257.200,117.207 257.420,117.296 257.689 C 117.496 258.287,148.116 258.168,148.333 257.568 C 148.407 257.365,149.352 257.200,150.433 257.200 C 151.515 257.200,152.400 257.020,152.400 256.800 C 152.400 256.580,152.940 256.400,153.600 256.400 C 154.260 256.400,154.800 256.220,154.800 256.000 C 154.800 255.780,155.340 255.600,156.000 255.600 C 156.824 255.600,157.200 255.403,157.200 254.971 C 157.200 254.626,157.470 254.073,157.800 253.743 C 158.130 253.413,158.400 252.796,158.400 252.371 C 158.400 251.947,158.580 251.600,158.800 251.600 C 159.020 251.600,159.200 251.240,159.200 250.800 C 159.200 250.360,159.380 250.000,159.600 250.000 C 159.820 250.000,160.000 249.460,160.000 248.800 C 160.000 248.140,160.180 247.600,160.400 247.600 C 160.620 247.600,160.800 247.060,160.800 246.400 C 160.800 245.740,160.980 245.200,161.200 245.200 C 161.445 245.200,161.600 243.267,161.600 240.200 C 161.600 237.133,161.445 235.200,161.200 235.200 C 160.937 235.200,160.800 225.400,160.800 206.600 C 160.800 187.800,160.937 178.000,161.200 178.000 C 161.445 178.000,161.600 176.067,161.600 173.000 C 161.600 169.933,161.445 168.000,161.200 168.000 C 160.980 168.000,160.800 167.640,160.800 167.200 C 160.800 166.760,160.620 166.400,160.400 166.400 C 160.180 166.400,160.000 166.122,160.000 165.782 C 160.000 165.442,159.595 164.733,159.100 164.207 C 158.605 163.681,157.750 162.704,157.200 162.037 C 156.346 161.002,155.922 160.822,154.300 160.812 C 153.255 160.805,152.400 160.620,152.400 160.400 C 152.400 160.180,151.500 160.000,150.400 160.000 C 149.300 160.000,148.400 159.820,148.400 159.600 C 148.400 159.341,143.333 159.200,134.000 159.200 C 124.667 159.200,119.600 159.059,119.600 158.800 C 119.600 158.580,119.420 158.400,119.200 158.400 C 118.980 158.400,118.800 158.580,118.800 158.800 M147.600 162.000 C 147.600 162.220,148.500 162.400,149.600 162.400 C 150.700 162.400,151.600 162.580,151.600 162.800 C 151.600 163.020,152.320 163.200,153.200 163.200 C 154.080 163.200,154.800 163.380,154.800 163.600 C 154.800 163.820,155.263 164.000,155.829 164.000 C 157.071 164.000,157.772 164.639,158.140 166.104 C 158.291 166.707,158.592 167.200,158.808 167.200 C 159.023 167.200,159.200 167.560,159.200 168.000 C 159.200 168.440,159.380 168.800,159.600 168.800 C 159.820 168.800,160.000 169.340,160.000 170.000 C 160.000 170.660,159.820 171.200,159.600 171.200 C 159.336 171.200,159.200 183.933,159.200 208.600 C 159.200 231.639,159.056 246.000,158.825 246.000 C 158.618 246.000,158.323 246.844,158.168 247.875 C 157.842 250.049,156.531 251.600,155.018 251.600 C 154.458 251.600,154.000 251.780,154.000 252.000 C 154.000 252.220,153.460 252.400,152.800 252.400 C 152.140 252.400,151.600 252.580,151.600 252.800 C 151.600 253.020,151.060 253.200,150.400 253.200 C 149.740 253.200,149.200 253.380,149.200 253.600 C 149.200 253.820,148.660 254.000,148.000 254.000 C 147.340 254.000,146.800 254.180,146.800 254.400 C 146.800 254.658,142.400 254.800,134.400 254.800 C 126.400 254.800,122.000 254.942,122.000 255.200 C 122.000 255.979,119.011 255.647,118.400 254.800 C 118.083 254.360,117.591 254.000,117.306 254.000 C 116.667 254.000,110.000 247.387,110.000 246.753 C 110.000 246.500,109.613 245.958,109.140 245.548 C 108.217 244.747,107.930 233.983,108.824 233.667 C 109.304 233.496,109.334 180.518,108.854 180.333 C 108.664 180.260,108.418 177.628,108.308 174.484 L 108.108 168.769 109.214 167.584 C 109.823 166.933,110.537 166.400,110.800 166.400 C 111.063 166.400,111.783 165.860,112.400 165.200 C 113.017 164.540,113.809 164.000,114.160 164.000 C 114.512 164.000,114.800 163.820,114.800 163.600 C 114.800 163.380,115.160 163.200,115.600 163.200 C 116.040 163.200,116.400 163.020,116.400 162.800 C 116.400 162.580,116.760 162.400,117.200 162.400 C 117.640 162.400,118.000 162.220,118.000 162.000 C 118.000 161.741,123.200 161.600,132.800 161.600 C 142.400 161.600,147.600 161.741,147.600 162.000 " stroke="none" fill="#7ca4d4" fill-rule="evenodd"></path><path id="path4" d="M0.000 200.000 L 0.000 400.000 200.000 400.000 L 400.000 400.000 400.000 200.000 L 400.000 0.000 200.000 0.000 L 0.000 0.000 0.000 200.000 M346.800 84.000 C 346.800 84.220,347.340 84.400,348.000 84.400 C 348.660 84.400,349.200 84.580,349.200 84.800 C 349.200 85.020,349.560 85.200,350.000 85.200 C 350.440 85.200,350.800 85.380,350.800 85.600 C 350.800 85.820,351.160 86.000,351.600 86.000 C 352.040 86.000,352.400 86.180,352.400 86.400 C 352.400 86.620,352.720 86.800,353.112 86.800 C 353.503 86.800,354.083 87.160,354.400 87.600 C 354.717 88.040,355.215 88.400,355.506 88.400 C 356.209 88.400,358.000 90.214,358.000 90.926 C 358.000 91.235,358.450 91.826,359.000 92.239 C 360.066 93.039,360.614 101.600,359.600 101.600 C 359.334 101.600,359.200 136.733,359.200 206.200 C 359.200 275.667,359.334 310.800,359.600 310.800 C 359.844 310.800,360.000 312.667,360.000 315.600 C 360.000 318.533,359.844 320.400,359.600 320.400 C 359.380 320.400,359.200 320.683,359.200 321.029 C 359.200 321.374,358.930 321.927,358.600 322.257 C 358.270 322.587,358.000 323.204,358.000 323.629 C 358.000 324.053,357.823 324.400,357.607 324.400 C 357.391 324.400,356.045 325.570,354.615 327.000 C 353.185 328.430,351.781 329.600,351.496 329.600 C 351.210 329.600,350.717 329.960,350.400 330.400 C 350.083 330.840,349.503 331.200,349.112 331.200 C 348.720 331.200,348.400 331.380,348.400 331.600 C 348.400 331.820,348.040 332.000,347.600 332.000 C 347.160 332.000,346.800 332.180,346.800 332.400 C 346.800 332.620,346.506 332.800,346.147 332.800 C 345.788 332.800,345.133 333.205,344.693 333.700 C 344.150 334.310,343.835 334.439,343.713 334.100 C 343.570 333.701,315.538 333.600,205.367 333.600 C 113.522 333.600,67.200 333.466,67.200 333.200 C 67.200 332.980,66.840 332.800,66.400 332.800 C 65.960 332.800,65.600 332.620,65.600 332.400 C 65.600 332.180,65.240 332.000,64.800 332.000 C 64.360 332.000,64.000 331.820,64.000 331.600 C 64.000 331.380,63.640 331.200,63.200 331.200 C 62.760 331.200,62.400 331.020,62.400 330.800 C 62.400 330.580,62.040 330.400,61.600 330.400 C 61.160 330.400,60.800 330.220,60.800 330.000 C 60.800 329.780,60.480 329.600,60.088 329.600 C 59.697 329.600,59.117 329.240,58.800 328.800 C 58.483 328.360,58.075 328.000,57.894 328.000 C 57.333 328.000,55.600 326.070,55.600 325.445 C 55.600 325.120,55.240 324.740,54.800 324.600 C 54.360 324.460,54.000 323.998,54.000 323.573 C 54.000 323.148,53.820 322.800,53.600 322.800 C 53.380 322.800,53.200 322.440,53.200 322.000 C 53.200 321.560,53.020 321.200,52.800 321.200 C 52.541 321.200,52.400 316.000,52.400 306.400 C 52.400 296.800,52.541 291.600,52.800 291.600 C 53.020 291.600,53.200 290.700,53.200 289.600 C 53.200 288.500,53.380 287.600,53.600 287.600 C 53.822 287.600,54.000 286.533,54.000 285.200 C 54.000 283.867,54.178 282.800,54.400 282.800 C 54.620 282.800,54.800 282.524,54.800 282.187 C 54.800 281.501,57.342 278.800,57.987 278.800 C 58.214 278.800,58.400 278.620,58.400 278.400 C 58.400 278.180,58.760 278.000,59.200 278.000 C 59.640 278.000,60.000 277.820,60.000 277.600 C 60.000 277.380,60.360 277.200,60.800 277.200 C 61.240 277.200,61.600 277.020,61.600 276.800 C 61.600 276.580,62.140 276.400,62.800 276.400 C 63.460 276.400,64.000 276.220,64.000 276.000 C 64.000 275.780,64.540 275.600,65.200 275.600 C 65.860 275.600,66.400 275.420,66.400 275.200 C 66.400 274.934,104.786 274.800,180.758 274.800 L 295.115 274.800 296.358 273.640 C 297.041 273.001,297.600 272.231,297.600 271.928 C 297.600 271.625,297.960 271.117,298.400 270.800 C 299.194 270.228,299.200 269.765,299.200 207.072 L 299.200 143.921 297.958 142.760 C 297.274 142.122,296.414 141.600,296.046 141.600 C 295.678 141.600,295.117 141.240,294.800 140.800 C 294.204 139.974,292.800 139.693,292.800 140.400 C 292.800 140.666,256.133 140.800,183.600 140.800 C 111.067 140.800,74.400 140.934,74.400 141.200 C 74.400 141.422,73.333 141.600,72.000 141.600 C 70.667 141.600,69.600 141.422,69.600 141.200 C 69.600 140.980,68.700 140.800,67.600 140.800 C 66.500 140.800,65.600 140.620,65.600 140.400 C 65.600 140.180,64.880 140.000,64.000 140.000 C 63.120 140.000,62.400 139.820,62.400 139.600 C 62.400 139.380,61.860 139.200,61.200 139.200 C 60.540 139.200,60.000 139.020,60.000 138.800 C 60.000 138.580,59.640 138.400,59.200 138.400 C 58.760 138.400,58.400 138.220,58.400 138.000 C 58.400 137.780,58.130 137.600,57.800 137.600 C 57.470 137.600,57.200 137.420,57.200 137.200 C 57.200 136.980,56.925 136.800,56.589 136.800 C 55.796 136.800,52.400 133.404,52.400 132.611 C 52.400 132.275,52.220 132.000,52.000 132.000 C 51.780 132.000,51.600 131.280,51.600 130.400 C 51.600 129.520,51.780 128.800,52.000 128.800 C 52.260 128.800,52.400 122.933,52.400 112.000 C 52.400 101.067,52.260 95.200,52.000 95.200 C 51.780 95.200,51.600 94.840,51.600 94.400 C 51.600 93.960,51.780 93.600,52.000 93.600 C 52.220 93.600,52.400 93.240,52.400 92.800 C 52.400 92.360,52.552 92.000,52.739 92.000 C 53.281 92.000,54.800 90.551,54.800 90.035 C 54.800 89.351,56.657 87.600,57.382 87.600 C 57.722 87.600,58.000 87.420,58.000 87.200 C 58.000 86.980,58.270 86.800,58.600 86.800 C 58.930 86.800,59.200 86.620,59.200 86.400 C 59.200 86.180,59.560 86.000,60.000 86.000 C 60.440 86.000,60.800 85.820,60.800 85.600 C 60.800 85.380,61.340 85.200,62.000 85.200 C 62.660 85.200,63.200 85.020,63.200 84.800 C 63.200 84.580,63.740 84.400,64.400 84.400 C 65.060 84.400,65.600 84.220,65.600 84.000 C 65.600 83.734,112.733 83.600,206.200 83.600 C 299.667 83.600,346.800 83.734,346.800 84.000 M124.400 156.000 C 124.400 156.235,125.789 156.400,127.767 156.400 C 130.069 156.400,131.207 156.558,131.367 156.900 C 131.553 157.300,131.647 157.300,131.833 156.900 C 131.994 156.555,133.171 156.400,135.633 156.400 C 137.744 156.400,139.200 156.237,139.200 156.000 C 139.200 155.765,140.600 155.600,142.600 155.600 C 144.600 155.600,146.000 155.765,146.000 156.000 C 146.000 156.220,146.540 156.400,147.200 156.400 C 147.860 156.400,148.400 156.580,148.400 156.800 C 148.400 157.029,149.600 157.200,151.200 157.200 C 152.800 157.200,154.000 157.371,154.000 157.600 C 154.000 157.820,154.707 158.000,155.571 158.000 C 156.436 158.000,157.413 158.270,157.743 158.600 C 158.073 158.930,158.536 159.200,158.771 159.200 C 159.007 159.200,159.200 159.488,159.200 159.840 C 159.200 160.191,159.740 160.983,160.400 161.600 C 161.060 162.217,161.600 163.009,161.600 163.360 C 161.600 163.712,161.780 164.000,162.000 164.000 C 162.220 164.000,162.400 164.360,162.400 164.800 C 162.400 165.240,162.580 165.600,162.800 165.600 C 163.020 165.600,163.200 166.140,163.200 166.800 C 163.200 167.460,163.380 168.000,163.600 168.000 C 163.848 168.000,164.000 170.200,164.000 173.800 C 164.000 177.400,163.848 179.600,163.600 179.600 C 163.337 179.600,163.200 188.867,163.200 206.600 C 163.200 224.333,163.337 233.600,163.600 233.600 C 163.848 233.600,164.000 235.800,164.000 239.400 C 164.000 243.000,163.848 245.200,163.600 245.200 C 163.380 245.200,163.200 245.920,163.200 246.800 C 163.200 247.680,163.020 248.400,162.800 248.400 C 162.580 248.400,162.400 249.120,162.400 250.000 C 162.400 250.880,162.220 251.600,162.000 251.600 C 161.780 251.600,161.600 251.960,161.600 252.400 C 161.600 252.840,161.420 253.200,161.200 253.200 C 160.980 253.200,160.800 253.560,160.800 254.000 C 160.800 254.440,160.620 254.800,160.400 254.800 C 160.180 254.800,160.000 255.160,160.000 255.600 C 160.000 256.040,159.820 256.400,159.600 256.400 C 159.380 256.400,159.200 256.670,159.200 257.000 C 159.200 257.775,157.775 259.200,157.000 259.200 C 156.670 259.200,156.400 259.380,156.400 259.600 C 156.400 259.822,155.333 260.000,154.000 260.000 C 152.667 260.000,151.600 260.178,151.600 260.400 C 151.600 260.629,150.400 260.800,148.800 260.800 C 147.200 260.800,146.000 260.971,146.000 261.200 C 146.000 261.448,143.800 261.600,140.200 261.600 C 136.600 261.600,134.400 261.448,134.400 261.200 C 134.400 260.978,133.333 260.800,132.000 260.800 C 130.667 260.800,129.600 260.978,129.600 261.200 C 129.600 261.448,127.400 261.600,123.800 261.600 C 120.200 261.600,118.000 261.448,118.000 261.200 C 118.000 260.980,117.460 260.800,116.800 260.800 C 116.140 260.800,115.600 260.620,115.600 260.400 C 115.600 260.180,115.240 260.000,114.800 260.000 C 114.360 260.000,114.000 259.820,114.000 259.600 C 114.000 259.380,113.640 259.200,113.200 259.200 C 112.760 259.200,112.400 259.036,112.400 258.835 C 112.400 258.634,111.712 258.354,110.872 258.212 C 109.987 258.063,109.103 257.602,108.772 257.119 C 108.457 256.660,107.615 255.686,106.900 254.955 C 106.185 254.225,105.600 253.351,105.600 253.013 C 105.600 252.676,105.420 252.400,105.200 252.400 C 104.980 252.400,104.800 252.040,104.800 251.600 C 104.800 251.160,104.620 250.800,104.400 250.800 C 104.180 250.800,104.000 250.440,104.000 250.000 C 104.000 249.560,103.820 249.200,103.600 249.200 C 103.380 249.200,103.200 248.660,103.200 248.000 C 103.200 247.340,103.020 246.800,102.800 246.800 C 102.580 246.800,102.400 246.260,102.400 245.600 C 102.400 244.940,102.220 244.400,102.000 244.400 C 101.780 244.400,101.600 243.410,101.600 242.200 C 101.600 240.990,101.780 240.000,102.000 240.000 C 102.263 240.000,102.400 228.800,102.400 207.200 C 102.400 185.600,102.263 174.400,102.000 174.400 C 101.771 174.400,101.600 173.200,101.600 171.600 C 101.600 170.000,101.771 168.800,102.000 168.800 C 102.220 168.800,102.400 168.440,102.400 168.000 C 102.400 167.560,102.580 167.200,102.800 167.200 C 103.020 167.200,103.200 166.840,103.200 166.400 C 103.200 165.960,103.380 165.600,103.600 165.600 C 103.820 165.600,104.000 165.325,104.000 164.989 C 104.000 164.365,107.319 160.800,107.901 160.800 C 108.078 160.800,108.483 160.440,108.800 160.000 C 109.117 159.560,109.697 159.200,110.088 159.200 C 110.480 159.200,110.800 159.026,110.800 158.814 C 110.800 158.601,111.700 158.308,112.800 158.162 C 113.900 158.016,114.800 157.740,114.800 157.548 C 114.800 157.357,115.300 157.200,115.912 157.200 C 116.565 157.200,117.261 156.870,117.600 156.400 C 118.234 155.521,124.400 155.158,124.400 156.000 " stroke="none" fill="#c4dce4" fill-rule="evenodd"></path></g></svg>