<svg width="34" height="34" viewBox="0 0 34 34" fill="none" xmlns="http://www.w3.org/2000/svg">
<path d="M25.574 28.282C25.6038 28.2594 25.6332 28.2369 25.6626 28.2137C26.1152 27.8572 26.7711 27.9349 27.1277 28.3873C27.4843 28.8396 27.4066 29.4954 26.954 29.8518C25.6578 30.873 24.5099 29.0847 25.574 28.282Z" fill="#307BEC"/>
<path d="M0.145067 14.5484C1.32759 5.40317 9.68855 -1.04236 18.839 0.139793C25.355 0.981664 30.6021 5.50302 32.5679 11.4997C34.3174 16.8316 33.2704 22.8575 29.5555 27.3321C29.1876 27.7754 28.53 27.8365 28.0865 27.4686C27.6431 27.1009 27.582 26.4434 27.9499 26.0002C31.1985 22.0872 32.1152 16.8123 30.5852 12.1494C28.8407 6.82777 24.1251 2.92572 18.5715 2.20827C10.5843 1.1755 3.24666 6.83201 2.21436 14.8157C0.72955 26.299 12.5239 34.6943 22.8071 29.951C23.3302 29.7097 23.95 29.9379 24.1915 30.4609C24.4329 30.9838 24.2045 31.6033 23.6813 31.8446C11.8846 37.2865 -1.54702 27.6341 0.145067 14.5484Z" fill="#307BEC"/>
<path d="M16.5087 18.9061L14.9986 15.2619C14.2185 13.3796 12.0499 12.656 10.3838 13.4382C9.86224 13.6832 9.24092 13.4591 8.99595 12.9378C8.75098 12.4165 8.97508 11.7954 9.49658 11.5506C12.2276 10.2681 15.6855 11.4696 16.9262 14.4638L18.4363 18.1079C19.2134 19.9834 21.3862 20.7243 23.0665 19.9242C23.5868 19.6767 24.2092 19.8975 24.457 20.4174C24.7047 20.9375 24.4838 21.5596 23.9636 21.8072C21.2129 23.1167 17.7477 21.8959 16.5087 18.9061Z" fill="#307BEC"/>
<path d="M13.7138 19.9244C11.7506 20.9494 9.27949 19.9885 8.56701 17.8518C8.86421 18.158 9.08668 18.4587 9.59755 18.4587C10.5124 18.4587 10.9884 17.3515 10.3463 16.6898L8.29166 14.5728C7.89105 14.16 7.22995 14.1494 6.81643 14.5503L4.6985 16.6041C4.28491 17.0051 4.27494 17.6653 4.67613 18.0787C5.07726 18.4921 5.73777 18.502 6.15136 18.1011L6.41054 17.8498C7.18503 21.6163 11.3444 23.5146 14.6799 21.773C15.1906 21.5064 15.3883 20.8764 15.1216 20.3659C14.8548 19.8554 14.2246 19.6578 13.7138 19.9244Z" fill="#307BEC"/>
<path d="M28.78 15.2977C28.3789 14.8843 27.7184 14.8744 27.3048 15.2753L27.0456 15.5266C26.2716 11.7622 22.1164 9.8595 18.7763 11.6033C18.2656 11.87 18.0679 12.5 18.3346 13.0104C18.6014 13.5209 19.2316 13.7185 19.7424 13.4519C21.7055 12.427 24.1765 13.3878 24.8891 15.5244L24.6076 15.2343C24.2064 14.821 23.546 14.8109 23.1324 15.2119C22.7189 15.6129 22.7087 16.2731 23.1099 16.6865L25.1645 18.8035C25.566 19.2173 26.2271 19.2261 26.6397 18.826L28.7577 16.7722C29.1712 16.3712 29.1812 15.711 28.78 15.2977Z" fill="#307BEC"/>
</svg>
