<svg width="18" height="18" viewBox="0 0 18 18" fill="none" xmlns="http://www.w3.org/2000/svg">
<path d="M8.99984 0.666626C4.39984 0.666626 0.666504 4.39996 0.666504 8.99996C0.666504 13.6 4.39984 17.3333 8.99984 17.3333C13.5998 17.3333 17.3332 13.6 17.3332 8.99996C17.3332 4.39996 13.5998 0.666626 8.99984 0.666626ZM6.7415 12.575L3.74984 9.58329C3.42484 9.25829 3.42484 8.73329 3.74984 8.40829C4.07484 8.08329 4.59984 8.08329 4.92484 8.40829L7.33317 10.8083L13.0665 5.07496C13.3915 4.74996 13.9165 4.74996 14.2415 5.07496C14.5665 5.39996 14.5665 5.92496 14.2415 6.24996L7.9165 12.575C7.59984 12.9 7.0665 12.9 6.7415 12.575Z" fill="#12D78E"/>
</svg>
