<svg width="22" height="16" viewBox="0 0 22 16" fill="none" xmlns="http://www.w3.org/2000/svg">
<g clip-path="url(#clip0_131206_281446)">
<mask id="mask0_131206_281446" style="mask-type:alpha" maskUnits="userSpaceOnUse" x="0" y="0" width="22" height="16">
<path d="M19.4 0.5H2.4C1.29543 0.5 0.400002 1.39543 0.400002 2.5V13.5C0.400002 14.6046 1.29543 15.5 2.4 15.5H19.4C20.5046 15.5 21.4 14.6046 21.4 13.5V2.5C21.4 1.39543 20.5046 0.5 19.4 0.5Z" fill="white"/>
</mask>
<g mask="url(#mask0_131206_281446)">
<path d="M19.4 0.5H2.4C1.29543 0.5 0.400002 1.39543 0.400002 2.5V13.5C0.400002 14.6046 1.29543 15.5 2.4 15.5H19.4C20.5046 15.5 21.4 14.6046 21.4 13.5V2.5C21.4 1.39543 20.5046 0.5 19.4 0.5Z" fill="#DD0000"/>
<path fill-rule="evenodd" clip-rule="evenodd" d="M0.400002 10.5H21.4V15.5H0.400002V10.5Z" fill="#FFCE00"/>
<path fill-rule="evenodd" clip-rule="evenodd" d="M0.400002 0.5H21.4V5.5H0.400002V0.5Z" fill="black"/>
<path d="M19.4 1H2.4C1.57157 1 0.900002 1.67157 0.900002 2.5V13.5C0.900002 14.3284 1.57157 15 2.4 15H19.4C20.2284 15 20.9 14.3284 20.9 13.5V2.5C20.9 1.67157 20.2284 1 19.4 1Z" stroke="black" stroke-opacity="0.1"/>
</g>
</g>
<defs>
<clipPath id="clip0_131206_281446">
<rect width="21" height="15" fill="white" transform="translate(0.400002 0.5)"/>
</clipPath>
</defs>
</svg>
