<svg width="768" height="70" viewBox="0 0 768 70" fill="none" xmlns="http://www.w3.org/2000/svg">
<rect width="523" height="4" transform="translate(0 33)" fill="#D1A900"/>
<path d="M768 26.808L742.725 23.1054L731.423 0L720.122 23.1054L694.859 26.808L694.898 26.8467L725.044 28.0077L731.423 14.965L737.905 28.2142L752.39 30.3299L741.907 40.6506C745.934 50.4294 749.961 60.2212 753.988 70L749.706 44.7917L768 26.808Z" fill="#D1A900"/>
<path d="M583.702 41.901C583.351 41.1826 582.874 40.5925 582.422 40.182C581.895 39.7201 580.866 39.0274 579.06 39.0274C575.923 39.0274 574.166 41.2339 574.166 43.5431C574.166 46.1089 576.199 47.2892 577.579 47.8793L579.185 48.572C580.289 49.0339 581.594 49.7523 581.594 51.497C581.594 53.2161 580.39 54.3707 578.834 54.3707C577.83 54.3707 577.127 53.9602 576.65 53.3444C576.249 52.8056 575.948 52.0102 575.948 51.1635L573.413 51.7279C573.513 52.9082 573.915 54.0371 574.818 55.0635C575.672 56.0384 576.826 56.7825 578.758 56.7825C581.895 56.7825 584.154 54.5503 584.154 51.2918C584.154 49.3418 583.301 47.5457 580.214 46.2629L578.533 45.5701C576.901 44.903 576.726 44.005 576.726 43.4918C576.726 42.3885 577.529 41.4392 579.085 41.4392C579.812 41.4392 580.364 41.6188 580.891 42.055C581.268 42.3885 581.494 42.7477 581.644 43.1326L583.702 41.901Z" fill="#D1A900"/>
<path d="M598.951 56.449H601.711L593.781 38.3346L585.449 56.449H588.21L590.042 52.3181H597.194L598.951 56.449ZM591.096 49.8549L593.681 44.0563L596.165 49.8549H591.096Z" fill="#D1A900"/>
<path d="M603.825 39.3353V56.449H611.304V53.9858H606.385V39.3353H603.825Z" fill="#D1A900"/>
<path d="M620.847 39.0274C615.828 39.0274 612.139 42.876 612.139 47.9049C612.139 52.9339 615.828 56.7825 620.847 56.7825C625.866 56.7825 629.555 52.9339 629.555 47.9049C629.555 42.876 625.866 39.0274 620.847 39.0274ZM620.847 54.3707C617.258 54.3707 614.699 51.7023 614.699 47.9049C614.699 44.1076 617.258 41.4392 620.847 41.4392C624.436 41.4392 626.995 44.1076 626.995 47.9049C626.995 51.7023 624.436 54.3707 620.847 54.3707Z" fill="#D1A900"/>
<path d="M635.328 56.449V44.4925L647.474 57.5009V39.3353H644.914V51.1891L632.768 38.1807V56.449H635.328Z" fill="#D1A900"/>
<path d="M671.812 39.457C670.345 38.4732 668.854 38.1807 667.312 38.1807C664.986 38.1807 662.963 38.7656 661.219 40.494C659.803 41.9033 658.514 44.1634 658.514 47.434C658.514 49.9334 659.247 52.1936 661.219 54.1346C662.205 55.1185 664.126 56.5809 667.185 56.5809C668.348 56.5809 670.118 56.315 671.812 55.2514V52.034C670.851 52.9913 669.283 54.0815 667.261 54.0815C663.671 54.0815 661.092 51.1832 661.092 47.434C661.092 43.5252 663.57 40.6801 667.236 40.6801C668.196 40.6801 669.941 40.8663 671.812 42.6478V39.457Z" fill="#616161"/>
<path d="M684.696 38.1807C679.639 38.1807 675.923 42.1692 675.923 47.3808C675.923 52.5924 679.639 56.5809 684.696 56.5809C689.752 56.5809 693.468 52.5924 693.468 47.3808C693.468 42.1692 689.752 38.1807 684.696 38.1807ZM684.696 54.0815C681.08 54.0815 678.502 51.3161 678.502 47.3808C678.502 43.4455 681.08 40.6801 684.696 40.6801C688.311 40.6801 690.89 43.4455 690.89 47.3808C690.89 51.3161 688.311 54.0815 684.696 54.0815Z" fill="#616161"/>
<path d="M706.944 38.1807C701.888 38.1807 698.172 42.1692 698.172 47.3808C698.172 52.5924 701.888 56.5809 706.944 56.5809C712 56.5809 715.717 52.5924 715.717 47.3808C715.717 42.1692 712 38.1807 706.944 38.1807ZM706.944 54.0815C703.329 54.0815 700.75 51.3161 700.75 47.3808C700.75 43.4455 703.329 40.6801 706.944 40.6801C710.559 40.6801 713.138 43.4455 713.138 47.3808C713.138 51.3161 710.559 54.0815 706.944 54.0815Z" fill="#616161"/>
<path d="M721.229 38.4997V56.2353H723.808V49.0294H724.971C726.209 49.0294 727.752 48.8432 729.091 47.6467C730.482 46.397 730.735 44.8016 730.735 43.7646C730.735 42.1426 730.052 40.4408 728.636 39.457C727.423 38.6061 725.982 38.4997 724.945 38.4997H721.229ZM723.808 40.9992H724.945C727.878 40.9992 728.257 42.7541 728.257 43.738C728.257 45.3865 727.195 46.5299 724.971 46.5299H723.808V40.9992Z" fill="#616161"/>
</svg>
